General                          : ChattChitto RG - Movies [R2L]
==========
Complete name                    : Tangled 2010 720p BRRip H264 [ChattChitto RG]
Format                           : MPEG-4
Format profile                   : Base Media
Codec ID                         : isom
File size                        : 1.72 GiB
Duration                         : 1h 40mn
Overall bit rate                 : 2 457 Kbps
Encoded date                     : UTC 2011-02-28 23:57:45

Video
==========
ID                               : 1
Format                           : AVC
Format/Info                      : Advanced Video Codec
Format profile                   : High@L4.1
Format settings, CABAC           : Yes
Format settings, ReFrames        : 4 frames
Codec ID                         : avc1
Codec ID/Info                    : Advanced Video Coding
Duration                         : 1h 40mn
Bit rate mode                    : Variable
Bit rate                         : 2 100 Kbps
Maximum bit rate                 : 26.2 Mbps
Width                            : 1 280 pixels
Height                           : 720 pixels
Display aspect ratio             : 16:9
Frame rate mode                  : Constant
Frame rate                       : 23.976 fps
Color space                      : YUV
Chroma subsampling               : 4:2:0
Bit depth                        : 8 bits
Scan type                        : Progressive
Bits/(Pixel*Frame)               : 0.095
Stream size                      : 1.47 GiB (85%)
Writing library                  : x264 core 84 r1400M 20fa784
Encoded date                     : UTC 2011-02-28 23:53:06

Audio
==========
ID                               : 2
Format                           : AAC
Format/Info                      : Advanced Audio Codec
Format profile                   : LC
Codec ID                         : 40
Duration                         : 1h 40mn
Bit rate mode                    : Variable
Bit rate                         : 352.8 Kbps
Maximum bit rate                 : 437 Kbps
Channel(s)                       : 6 channels
Channel positions                : Front: L C R, Side: L R, LFE
Sampling rate                    : 48.0 KHz
Compression mode                 : Lossy
Stream size                      : 253 MiB (14%)
Encoded date                     : UTC 2011-02-28 23:58:38

Subtitles                        : English | French


----------------------------------------------------
IMDB Link: http://www.imdb.com/title/tt0398286/
----------------------------------------------------



Screen Shots:
==============    
http://chattchitto.net/chattchittorg/movies/brrip/2011/tangled/3.png 
http://chattchitto.net/chattchittorg/movies/brrip/2011/tangled/4.png 
http://chattchitto.net/chattchittorg/movies/brrip/2011/tangled/5.png 
http://chattchitto.net/chattchittorg/movies/brrip/2011/tangled/6.png 
http://chattchitto.net/chattchittorg/movies/brrip/2011/tangled/7.png



ScreenShots Comparison:
=========================  
http://screenshotcomparison.com/comparison/32414



Plot:
======
The long-haired Princess Rapunzel has spent her entire life in a tower, but when she falls in love with a bandit who was passing by she must venture into the outside world for the first time to find him.



Release Info:
==============
original name .... : Tangled 2010 720p BRRip H264 [ChattChitto RG]
ripper.............: CHD
encoder............: Recalled2Life (R2L)
video codec........: H264/.MP4
video bitrate......: 2100 Kbps
audio codec........: AAC-LC
aspect ratio.......: 16:9
resolution.........: 1280 x 720
genre..............: Animation | Comedy | Family
runtime............: 1h 40mn
language...........: English
rating.............: PG
subtitles..........: English | French
sample.............: Yes
2ch Audio..........: 2ch Audio for XBox Viewers  
Compatibility .....: XBox | PS3 | WD Live



Source:
========
Tangled.2010.Bluray.720p.DTS.x264-CHD  THANKS!!



Notes:
=======
ChattChitto RG Encourages Burning this Film with ConvertXtoDVD and Playing with VLC media player.
XBox 360 | PS3 | WD Live - Compatible 
Enhanced for your viewing pleasure ;)